{"title":"Welcome.To.The.Punch.2013.WEBRip XViD juggs","uid":8323423,"size":747220669,"categoryP":"video","categoryS":"movies","magnet":"?xt=urn:btih:685f7102060c5fed88632c00e9e4beb145b10c54&amp;dn=Welcome.To.The.Punch.2013.WEBRip+XViD+juggs&amp;tr=udp%3A%2F%2Ftracker.openbittorrent.com%3A80&amp;tr=udp%3A%2F%2Fopen.demonii.com%3A1337&amp;tr=udp%3A%2F%2Ftracker.coppersurfer.tk%3A6969&amp;tr=udp%3A%2F%2Fexodus.desync.com%3A6969","seeders":5,"leechers":0,"uploader":"juggs99","files":3,"time":1364744253,"description":"Source : WEB DL Blackjesus (Thanks)\n &lt;a href=&quot;\nhttp://www.imdb.co.uk/title/tt1684233/&quot; rel=&quot;nofollow&quot; target=&quot;_NEW&quot;&gt;\nhttp://www.imdb.co.uk/title/tt1684233/&lt;/a&gt;\n\nFormat                                   : AVI\nFormat/Info                              : Audio Video Interleave\nFile size                                : 700 MiB\nDuration                                 : 1h 39mn\nOverall bit rate                         : 981 Kbps\nWriting library                          : VirtualDub build 32842/release\n\nVideo\nID                                       : 0\nFormat                                   : MPEG-4 Visual\nFormat profile                           : Advanced Simple@L5\nFormat settings, BVOP                    : 4\nFormat settings, QPel                    : No\nFormat settings, GMC                     : No warppoints\nFormat settings, Matrix                  : Default (H.263)\nMuxing mode                              : Packed bitstream\nCodec ID                                 : XVID\nCodec ID/Hint                            : XviD\nDuration                                 : 1h 39mn\nBit rate                                 : 844 Kbps\nWidth                                    : 640 pixels\nHeight                                   : 256 pixels\nDisplay aspect ratio                     : 2.500\nFrame rate                               : 23.976 fps\nColor space                              : YUV\nChroma subsampling                       : 4:2:0\nBit depth                                : 8 bits\nScan type                                : Progressive\nCompression mode                         : Lossy\nBits/(Pixel*Frame)                       : 0.215\nStream size                              : 602 MiB (86%)\nWriting library                          : XviD 64\n\nAudio\nID                                       : 1\nFormat                                   : MPEG Audio\nFormat version                           : Version 1\nFormat profile                           : Layer 3\nMode                                     : Joint stereo\nMode extension                           : MS Stereo\nCodec ID                                 : 55\nCodec ID/Hint                            : MP3\nDuration                                 : 1h 39mn\nBit rate mode                            : Constant\nBit rate                                 : 128 Kbps\nChannel(s)                               : 2 channels\nSampling rate                            : 44.1 KHz\nCompression mode                         : Lossy\nStream size                              : 91.3 MiB (13%)\nAlignment                                : Split accross interleaves\nInterleave, duration                     : 42 ms (1.00 video frame)\nInterleave, preload duration             : 500 ms\nWriting library                          : LAME3.98\n\nPlot\nEx-criminal Jacob Sternwood is forced to return to London when his son is involved in a heist gone wrong. This gives his nemesis, detective Max Lewinsky, one last chance to catch the man he's always been after.\n\n &lt;a href=&quot;\nhttp://www.shotpix.com/images/75468048588245155721.png&quot; rel=&quot;nofollow&quot; target=&quot;_NEW&quot;&gt;\nhttp://www.shotpix.com/images/75468048588245155721.png&lt;/a&gt; &lt;a href=&quot;\nhttp://www.shotpix.com/images/62040366040855530737.png&quot; rel=&quot;nofollow&quot; target=&quot;_NEW&quot;&gt;\nhttp://www.shotpix.com/images/62040366040855530737.png&lt;/a&gt; &lt;a href=&quot;\nhttp://www.shotpix.com/images/70480247425055740722.png&quot; rel=&quot;nofollow&quot; target=&quot;_NEW&quot;&gt;\nhttp://www.shotpix.com/images/70480247425055740722.png&lt;/a&gt;","torrent":{"xt":"urn:btih:685f7102060c5fed88632c00e9e4beb145b10c54","amp;dn":"Welcome.To.The.Punch.2013.WEBRip+XViD+juggs","amp;tr":["udp%3A%2F%2Ftracker.openbittorrent.com%3A80","udp%3A%2F%2Fopen.demonii.com%3A1337","udp%3A%2F%2Ftracker.coppersurfer.tk%3A6969","udp%3A%2F%2Fexodus.desync.com%3A6969"],"infoHash":"685f7102060c5fed88632c00e9e4beb145b10c54","infoHashBuffer":{"type":"Buffer","data":[104,95,113,2,6,12,95,237,136,99,44,0,233,228,190,177,69,177,12,84]},"announce":[],"urlList":[]}}